<svg width="150" height="150" viewBox="0 0 150 150" fill="none" xmlns="http://www.w3.org/2000/svg">
<g clip-path="url(#clip0_8_37)">
<circle cx="75" cy="75" r="75" fill="#6CB1C9"/>
<path d="M83.576 64.312C83.576 62.776 83.064 61.368 83.192 59.832C83.32 58.552 83.192 57.272 83.32 55.992C84.6 55.992 86.008 55.864 87.288 55.736C91.768 55.352 96.12 55.864 100.6 55.352C104.568 54.968 108.664 55.352 112.632 54.84C114.04 54.584 117.88 54.584 119.416 54.584C119.416 56.12 119.288 58.296 119.288 60.088C118.904 62.264 119.288 64.44 119.032 66.488C118.392 70.84 118.264 75.32 117.624 79.672C117.496 81.08 117.496 82.36 117.368 83.768C110.456 83.64 103.416 82.36 96.376 82.872C95.864 82.872 95.352 82.744 94.712 82.744C94.84 81.208 95.352 79.8 95.224 78.392C92.664 78.52 90.104 78.136 87.544 78.392C86.52 78.392 85.368 78.392 84.344 78.392C84.088 77.624 83.832 76.728 83.832 75.832C83.832 71.992 83.32 68.152 83.576 64.312ZM75.896 42.552C75.896 49.08 76.408 55.736 76.536 62.264C76.536 63.16 76.408 64.056 76.408 64.824C74.36 64.952 72.312 64.952 70.264 65.208C67.192 65.464 62.84 64.696 61.176 64.952C59.768 73.144 58.488 81.464 57.08 89.656C56.824 90.808 56.696 92.088 56.184 93.24C55.672 94.776 55.672 96.44 55.416 98.104C54.648 102.584 54.392 107.192 53.24 111.672C52.472 114.872 51.704 118.072 51.32 121.272C47.224 120.632 43 119.992 38.776 119.352C37.368 119.224 35.832 119.352 34.424 118.584C32.76 118.2 30.84 117.944 29.048 117.816C29.304 116.024 30.328 112.824 30.712 110.264C30.84 107.704 31.096 105.272 31.736 102.84C32.248 100.28 32.76 97.72 33.272 95.16C33.912 89.272 35.448 83.64 36.344 77.752C36.984 73.528 37.752 69.432 38.392 65.208C33.656 65.336 31.224 65.208 26.488 65.336C26.488 62.904 26.616 61.88 26.488 60.088C26.232 55.736 26.36 51.384 26.36 47.032C26.232 45.624 26.232 43.96 26.104 42.936C32.12 42.936 35.96 42.936 41.976 42.808C42.488 40.12 42.744 37.432 43.384 34.744L46.328 16.568C48.12 16.952 49.784 17.208 51.576 17.336C51.96 17.336 53.496 17.72 54.008 17.848C56.184 18.36 58.36 18.488 60.664 18.872C62.456 19 64.248 19.768 66.04 19.896C66.936 19.896 67.832 20.152 68.6 20.28C67.32 27.832 66.04 35.384 64.888 42.808C68.6 42.68 72.312 42.808 75.896 42.552ZM119.032 96.824C120.568 99 122.488 100.792 123.896 102.968C125.432 105.272 127.352 107.192 129.144 109.368C128.12 110.136 127.096 110.776 126.2 111.544C124.664 112.824 122.744 113.464 121.336 114.872C120.184 115.768 118.648 116.28 117.112 116.792C114.936 117.56 112.76 118.712 110.456 119.352C108.792 119.736 107.128 119.992 105.592 120.376C103.672 120.888 101.752 120.248 99.832 120.248C98.296 120.12 96.888 120.504 95.352 120.248C93.048 119.992 90.744 119.48 88.44 118.968C86.52 118.456 84.728 117.688 82.808 117.304C81.784 117.048 80.632 116.92 79.736 116.408C77.944 115.512 76.024 115.256 74.488 114.232C73.08 113.336 71.8 112.184 70.648 111.16C68.984 109.88 67.832 108.088 66.04 107.064C64.76 106.296 62.712 104.504 61.816 103.48C62.2 102.84 63.608 101.432 63.608 101.432C65.016 99.128 66.808 96.952 68.088 94.52C68.472 93.88 68.856 93.496 69.368 92.984C70.264 91.96 70.904 90.68 71.8 89.656C72.952 88.504 73.72 87.096 74.872 86.072C78.2 88.376 81.4 90.68 84.472 93.112C86.264 95.16 88.696 96.184 91.128 96.824C92.664 97.336 94.328 97.592 95.864 97.72C97.272 97.72 98.68 98.232 100.088 98.232C101.24 98.36 102.136 97.72 103.288 97.592C104.44 97.464 105.72 97.208 106.744 96.824C109.56 95.288 112.12 93.496 114.808 91.704C116.344 93.368 117.752 94.904 119.032 96.824Z" fill="#F0F0F0"/>
<path d="M102.925 16.7117C100.762 14.5084 97.2498 14.5084 95.086 16.7117L78.7685 33.3274C75.035 37.1291 75.035 43.2878 78.7685 47.0895C82.502 50.8912 88.5501 50.8912 92.2836 47.0895L105.763 33.3635C106.73 32.3792 108.308 32.3792 109.275 33.3635C110.242 34.3478 110.242 35.9552 109.275 36.9395L95.7954 50.6655C90.1198 56.4448 80.9324 56.4448 75.2567 50.6655C69.5811 44.8861 69.5811 35.5308 75.2567 29.7514L91.5742 13.1358C95.6801 8.95475 102.331 8.95475 106.437 13.1358C110.543 17.3168 110.543 24.0894 106.437 28.2705L90.8292 44.1637C88.2929 46.7463 84.1781 46.7463 81.6418 44.1637C79.1055 41.581 79.1055 37.391 81.6418 34.8084L94.412 21.8048C95.3786 20.8205 96.9571 20.8205 97.9238 21.8048C98.8904 22.7891 98.8904 24.3965 97.9238 25.3808L85.1536 38.3843C84.5594 38.9894 84.5594 39.9827 85.1536 40.5877C85.7478 41.1927 86.7233 41.1927 87.3174 40.5877L102.925 24.6945C105.089 22.4911 105.089 18.9151 102.925 16.7117Z" fill="#F0F0F0"/>
</g>
<defs>
<clipPath id="clip0_8_37">
<rect width="150" height="150" fill="white"/>
</clipPath>
</defs>
</svg>
