<svg width="800" height="180" viewBox="0 0 800 180" fill="none" xmlns="http://www.w3.org/2000/svg">
<path d="M113.311 39.9618C110.714 37.348 106.5 37.348 103.903 39.9618L84.3222 59.6721C79.842 64.1819 79.842 71.4876 84.3222 75.9974C88.8024 80.5072 96.0601 80.5072 100.54 75.9974L116.716 59.715C117.876 58.5474 119.77 58.5474 120.93 59.715C122.09 60.8826 122.09 62.7894 120.93 63.957L104.754 80.2394C97.9437 87.0952 86.9188 87.0952 80.1081 80.2394C73.2973 73.3837 73.2973 62.2859 80.1081 55.4301L99.689 35.7198C104.616 30.7601 112.597 30.7601 117.525 35.7198C122.452 40.6795 122.452 48.7136 117.525 53.6733L98.7951 72.5267C95.7515 75.5904 90.8137 75.5904 87.7702 72.5267C84.7266 69.463 84.7266 64.4926 87.7702 61.4289L103.094 46.0034C104.254 44.8358 106.149 44.8358 107.309 46.0034C108.468 47.1711 108.468 49.0778 107.309 50.2454L91.9843 65.6709C91.2713 66.3886 91.2713 67.567 91.9843 68.2847C92.6973 69.0024 93.8679 69.0024 94.5809 68.2847L113.311 49.4313C115.907 46.8176 115.907 42.5756 113.311 39.9618Z" fill="#F0F0F0"/>
<path d="M88.576 88.312C88.576 86.776 88.064 85.368 88.192 83.832C88.32 82.552 88.192 81.272 88.32 79.992C89.6 79.992 91.008 79.864 92.288 79.736C96.768 79.352 101.12 79.864 105.6 79.352C109.568 78.968 113.664 79.352 117.632 78.84C119.04 78.584 122.88 78.584 124.416 78.584C124.416 80.12 124.288 82.296 124.288 84.088C123.904 86.264 124.288 88.44 124.032 90.488C123.392 94.84 123.264 99.32 122.624 103.672C122.496 105.08 122.496 106.36 122.368 107.768C115.456 107.64 108.416 106.36 101.376 106.872C100.864 106.872 100.352 106.744 99.712 106.744C99.84 105.208 100.352 103.8 100.224 102.392C97.664 102.52 95.104 102.136 92.544 102.392C91.52 102.392 90.368 102.392 89.344 102.392C89.088 101.624 88.832 100.728 88.832 99.832C88.832 95.992 88.32 92.152 88.576 88.312ZM80.896 66.552C80.896 73.08 81.408 79.736 81.536 86.264C81.536 87.16 81.408 88.056 81.408 88.824C79.36 88.952 77.312 88.952 75.264 89.208C72.192 89.464 67.84 88.696 66.176 88.952C64.768 97.144 63.488 105.464 62.08 113.656C61.824 114.808 61.696 116.088 61.184 117.24C60.672 118.776 60.672 120.44 60.416 122.104C59.648 126.584 59.392 131.192 58.24 135.672C57.472 138.872 56.704 142.072 56.32 145.272C52.224 144.632 48 143.992 43.776 143.352C42.368 143.224 40.832 143.352 39.424 142.584C37.76 142.2 35.84 141.944 34.048 141.816C34.304 140.024 35.328 136.824 35.712 134.264C35.84 131.704 36.096 129.272 36.736 126.84C37.248 124.28 37.76 121.72 38.272 119.16C38.912 113.272 40.448 107.64 41.344 101.752C41.984 97.528 42.752 93.432 43.392 89.208C38.656 89.336 36.224 89.208 31.488 89.336C31.488 86.904 31.616 85.88 31.488 84.088C31.232 79.736 31.36 75.384 31.36 71.032C31.232 69.624 31.232 67.96 31.104 66.936C37.12 66.936 40.96 66.936 46.976 66.808C47.488 64.12 47.744 61.432 48.384 58.744L51.328 40.568C53.12 40.952 54.784 41.208 56.576 41.336C56.96 41.336 58.496 41.72 59.008 41.848C61.184 42.36 63.36 42.488 65.664 42.872C67.456 43 69.248 43.768 71.04 43.896C71.936 43.896 72.832 44.152 73.6 44.28C72.32 51.832 71.04 59.384 69.888 66.808C73.6 66.68 77.312 66.808 80.896 66.552ZM124.032 120.824C125.568 123 127.488 124.792 128.896 126.968C130.432 129.272 132.352 131.192 134.144 133.368C133.12 134.136 132.096 134.776 131.2 135.544C129.664 136.824 127.744 137.464 126.336 138.872C125.184 139.768 123.648 140.28 122.112 140.792C119.936 141.56 117.76 142.712 115.456 143.352C113.792 143.736 112.128 143.992 110.592 144.376C108.672 144.888 106.752 144.248 104.832 144.248C103.296 144.12 101.888 144.504 100.352 144.248C98.048 143.992 95.744 143.48 93.44 142.968C91.52 142.456 89.728 141.688 87.808 141.304C86.784 141.048 85.632 140.92 84.736 140.408C82.944 139.512 81.024 139.256 79.488 138.232C78.08 137.336 76.8 136.184 75.648 135.16C73.984 133.88 72.832 132.088 71.04 131.064C69.76 130.296 67.712 128.504 66.816 127.48C67.2 126.84 68.608 125.432 68.608 125.432C70.016 123.128 71.808 120.952 73.088 118.52C73.472 117.88 73.856 117.496 74.368 116.984C75.264 115.96 75.904 114.68 76.8 113.656C77.952 112.504 78.72 111.096 79.872 110.072C83.2 112.376 86.4 114.68 89.472 117.112C91.264 119.16 93.696 120.184 96.128 120.824C97.664 121.336 99.328 121.592 100.864 121.72C102.272 121.72 103.68 122.232 105.088 122.232C106.24 122.36 107.136 121.72 108.288 121.592C109.44 121.464 110.72 121.208 111.744 120.824C114.56 119.288 117.12 117.496 119.808 115.704C121.344 117.368 122.752 118.904 124.032 120.824ZM243.968 37.88C244.352 38.776 244.736 39.8 244.608 40.824C244.608 41.464 244.864 42.232 244.864 42.872C244.608 45.304 244.096 47.608 242.816 49.656C242.304 50.808 241.152 51.576 240.384 52.472C239.36 53.368 238.336 54.264 237.056 54.52C235.136 54.904 233.216 55.032 231.424 55.16C230.528 55.16 229.76 55.288 228.992 54.904C227.456 54.136 226.048 53.368 224.64 52.6C223.872 52.216 222.976 51.704 222.592 50.936C222.08 50.04 221.44 49.528 221.056 48.632C220.544 47.352 220.16 45.944 219.776 44.664C219.648 43.384 219.904 42.232 219.904 40.952C219.776 40.056 220.288 39.288 220.544 38.392C221.184 36.472 222.336 34.808 224 33.528C224.768 32.888 225.792 32.76 226.56 31.992C228.224 30.456 230.656 30.328 232.832 30.2C234.496 30.328 236.032 30.584 237.568 31.352C237.824 31.48 240.512 33.272 241.28 34.424C242.176 35.576 243.456 36.472 243.968 37.88ZM249.088 65.528C248.704 65.272 248.192 65.016 247.808 64.632C247.552 64.376 247.168 64.248 246.912 63.864C246.016 62.968 245.376 61.816 245.12 60.536C244.864 59.896 244.992 59.128 244.864 58.488C244.992 57.72 244.992 56.952 245.504 56.44C246.016 55.544 246.656 54.776 247.296 54.008C247.68 53.624 247.936 53.368 248.448 53.24C249.216 52.856 250.112 52.6 250.88 52.344C251.392 52.216 251.904 52.088 252.416 52.216C252.928 52.344 253.312 52.344 253.824 52.472C254.592 52.856 255.232 53.24 255.872 53.624C256.384 54.008 256.768 54.52 257.28 55.032C257.664 55.416 257.792 55.8 258.048 56.312C258.432 57.208 258.688 58.36 258.56 59.512C258.432 60.024 258.176 60.536 258.176 61.048C258.048 62.328 257.152 63.352 256.384 64.12C255.744 64.76 254.976 65.272 254.208 65.528C253.952 65.528 252.288 65.912 251.52 65.784C250.752 65.784 249.984 65.784 249.088 65.528ZM255.488 82.424C256.896 83.32 257.92 83.96 259.712 84.856C258.944 86.648 257.408 89.464 256 91.64C255.104 92.92 254.592 94.456 253.696 95.736C252.416 97.784 251.392 99.96 250.112 102.008C249.6 102.904 249.088 103.8 248.704 104.696C246.656 103.672 244.608 102.392 242.688 100.984C241.536 100.216 240.384 99.448 239.104 98.936C238.976 100.856 238.72 102.648 238.464 104.44C238.208 106.616 236.928 112.376 236.416 113.784C236.032 115.32 235.136 116.728 234.624 118.136C233.856 120.056 232.576 121.72 231.424 123.256C229.376 125.944 227.072 128.376 224.64 130.68C222.848 132.472 220.8 134.008 218.496 135.288C214.528 137.976 209.792 139.384 204.928 139.768C202.752 140.024 200.576 140.536 198.4 140.408C194.688 140.152 190.976 139.896 187.52 138.872C185.344 138.36 183.424 137.336 181.504 136.312C177.536 134.392 174.08 131.448 171.136 128.248C166.016 122.616 156.544 109.304 165.888 86.904C163.84 87.16 155.776 88.44 153.216 88.824C152.064 83.064 151.296 77.304 150.4 71.544C150.144 69.752 149.76 68.344 149.504 66.296C150.656 66.04 153.856 65.784 155.776 65.4C161.152 64.376 166.656 64.248 171.904 62.968C173.952 62.584 175.872 62.456 177.92 62.2C179.2 61.944 182.272 61.56 184.576 61.304C185.6 62.968 187.008 65.272 187.776 66.04C190.336 69.112 192.384 72.44 194.688 75.768C195.456 76.792 196.352 77.816 196.736 79.096C179.584 96.888 185.728 111.992 189.568 114.68C192 116.472 194.944 118.136 198.016 117.88C200.064 117.624 202.112 117.496 204.032 117.112C205.696 116.216 207.616 115.576 209.152 114.296C210.944 112.76 212.224 110.712 213.504 108.792C214.656 107 214.272 106.616 214.912 104.568C215.424 103.16 216.064 101.752 216.32 100.216C216.448 98.68 216.192 97.016 216.32 95.48C216.32 93.944 215.936 92.408 215.808 90.872C215.424 87.8 214.912 84.856 213.376 82.168C212.48 80.632 211.84 78.84 210.688 77.432C210.176 76.792 209.408 75.768 208.896 75.128C210.048 74.232 210.432 73.72 211.2 73.08C212.608 71.928 214.016 70.648 215.424 69.496C216.576 68.856 217.216 67.704 218.24 66.808C220.8 64.632 223.36 62.456 225.792 60.28C226.944 61.048 228.48 62.712 229.888 63.992C231.936 66.04 233.856 68.088 236.032 69.88C238.208 71.8 240.768 73.08 243.072 74.744C244.864 76.152 246.912 77.304 248.832 78.456C251.008 79.864 253.184 81.144 255.488 82.424ZM341.888 112.376C344.832 115.448 348.416 117.624 351.616 120.312C352.896 121.336 354.176 122.36 355.456 123.384C353.408 125.432 351.872 127.864 349.952 129.912C348.16 131.576 347.264 134.008 345.344 135.544C343.68 136.952 342.656 139 341.12 140.536C339.328 138.872 336.768 137.976 335.104 136.056C333.696 134.392 331.904 133.112 330.24 131.704C326.528 128.12 322.688 124.408 318.08 121.848C316.16 120.696 314.24 119.288 312.704 117.624C308.864 113.272 303.616 110.584 299.648 106.36C298.88 105.592 298.24 104.44 297.216 103.8C295.808 102.904 291.84 99.064 290.816 97.912C293.888 94.072 297.472 90.488 300.288 86.392C301.184 85.112 301.952 83.704 303.104 82.552C307.072 78.584 310.272 73.848 313.984 69.496C315.136 67.96 316.544 66.68 317.44 65.016C318.976 62.584 321.024 60.536 322.816 58.488C323.456 57.848 323.712 56.952 324.224 56.312C326.016 54.136 328.064 52.088 330.112 50.168C331.008 49.4 331.648 48.504 332.288 47.736C334.208 49.272 336.128 50.936 338.176 52.344C340.352 53.88 342.272 55.8 344.32 57.336C345.344 58.104 346.368 58.872 347.136 59.896C347.904 60.92 348.8 61.56 349.568 62.456C348.16 63.736 347.008 65.272 345.728 66.68C344.448 68.088 343.04 69.24 341.888 70.648C341.376 71.416 340.864 72.184 340.224 72.824C339.2 73.976 338.048 75 337.152 76.152C334.848 80.376 331.008 83.32 328.704 87.544C327.936 88.824 326.784 89.976 325.888 91.256C324.864 92.664 322.816 94.2 322.432 95.224C323.2 96.632 326.272 98.296 327.936 100.216C330.24 102.52 332.544 105.08 335.488 107C336.896 107.896 337.92 109.304 339.2 110.328C340.096 111.096 341.12 111.608 341.888 112.376ZM433.408 83.704C435.712 83.96 438.528 84.344 440.064 84.472C439.552 88.056 439.04 91.128 438.656 94.712C437.888 98.936 437.376 103.288 436.736 106.616C435.2 106.488 432.768 105.976 430.72 105.976C427.52 105.848 424.448 105.336 421.248 105.08C418.944 104.696 413.696 103.928 410.368 103.544C410.368 101.752 410.368 98.04 410.496 96.632C411.008 92.92 410.368 89.08 410.496 85.368C410.752 78.84 410.368 72.312 410.624 65.784C410.88 61.816 410.88 54.136 410.88 50.296C412.928 50.296 415.104 50.296 417.536 50.424C418.688 50.552 419.712 50.424 420.864 50.424C423.296 50.296 425.728 50.552 428.288 50.552C429.952 50.552 431.616 50.68 433.408 50.68C433.28 54.52 433.408 62.2 433.28 66.04C433.152 66.936 433.536 67.96 433.536 68.856C433.536 71.544 433.408 74.36 433.408 77.048C433.408 77.432 433.408 80.76 433.408 83.704ZM481.664 70.264C481.92 77.304 481.792 84.344 481.664 91.384C482.048 95.096 481.024 98.552 480.384 102.136C479.36 107.256 476.928 111.992 474.24 116.344C472.832 118.264 471.936 120.568 470.656 122.488C465.28 130.808 458.624 138.104 451.584 144.888C450.432 146.04 449.536 147.32 448.384 148.344C446.336 146.552 444.416 144.376 442.496 142.456C439.04 139.128 435.84 135.672 432.256 132.472C433.408 131.32 434.432 130.168 435.584 129.144C437.248 127.736 438.528 126.072 439.936 124.664C443.392 121.08 446.848 117.496 449.664 113.4C452.48 108.408 455.808 103.672 457.728 98.296C459.392 93.432 459.264 88.184 459.264 83.192C459.392 81.272 459.264 79.352 459.136 77.432C459.392 71.928 459.136 62.712 459.136 57.208C459.008 55.544 459.136 53.88 459.136 52.216C459.136 51.064 459.136 50.68 459.136 49.784C461.056 49.912 463.104 49.912 464.896 49.784C466.432 49.784 468.096 49.912 469.632 49.656C471.424 49.912 473.088 49.656 474.88 49.656C477.184 49.784 479.488 49.784 481.792 49.784C481.792 53.496 481.92 64.632 481.664 70.264ZM599.168 102.264C599.808 104.568 600.576 106.872 600.576 109.304C600.832 112.376 600.192 115.448 599.552 118.392C598.912 121.464 597.248 124.152 595.968 126.968C594.048 131.064 591.488 134.648 588.928 138.36C588.288 139.128 587.392 140.152 586.752 141.048C585.856 140.408 584.448 139.768 583.68 139.128C582.528 138.488 581.376 137.848 580.224 136.952C578.176 135.416 576 134.136 573.952 132.856C572.544 131.96 571.52 130.936 570.24 129.912C571.392 128.504 572.544 126.968 573.568 125.56C574.72 124.408 575.488 122.872 576.512 121.592C577.536 119.928 578.56 118.392 579.2 116.6C579.968 114.168 580.48 112.248 580.224 109.944C579.968 108.664 578.944 107.768 577.92 107.256C574.336 105.72 570.368 105.464 566.656 105.08C562.56 104.312 558.464 105.208 554.368 104.824C550.912 105.208 547.456 105.336 544 105.848C541.696 106.232 539.52 106.36 537.216 106.744C536.832 104.056 536.832 101.112 536.448 98.296C536.064 95.608 535.68 92.92 535.168 90.232C534.912 88.568 534.912 88.312 534.784 86.904C537.216 86.264 540.416 86.136 542.464 85.88C548.096 85.112 553.728 84.6 559.36 84.6C563.968 84.728 568.576 84.6 573.056 85.624C576.64 86.392 580.352 86.648 583.68 87.928C587.136 89.08 590.72 90.36 593.28 93.048C595.968 95.48 598.016 98.808 599.168 102.264ZM641.152 96.12C642.56 96.504 645.504 97.784 647.68 98.68C652.8 100.472 658.688 102.392 662.784 104.184C662.016 106.104 661.248 107.256 660.608 109.048C658.816 115.192 655.232 120.696 653.056 126.712C652.16 129.272 651.52 131.192 650.112 134.392C648.192 133.368 646.4 132.216 644.352 131.448C642.176 130.68 640 129.912 637.696 129.4C635.904 129.016 630.272 126.328 629.12 125.816C629.888 124.024 632.576 116.728 633.216 114.936C633.728 113.4 634.624 112.12 634.88 110.584C635.008 109.432 635.904 108.664 636.288 107.512C636.8 105.976 637.696 104.44 638.208 102.904C639.104 100.6 640 98.296 641.152 96.12ZM704.896 96.888C706.048 98.808 706.816 100.984 707.584 103.16C708.48 106.104 708.224 109.304 708.096 112.376C707.84 113.528 707.84 114.68 707.968 115.832C707.584 117.752 707.072 119.672 706.304 121.464C705.92 122.36 705.664 123.256 705.536 124.024C705.28 125.688 704.256 126.968 703.488 128.376C701.696 130.424 699.904 132.472 698.112 134.52C697.088 135.928 695.68 136.696 694.528 137.848C693.632 138.488 692.608 138.872 691.84 139.512C690.56 140.792 689.024 141.688 687.616 142.712C686.08 143.864 684.544 145.016 682.752 145.912C681.344 146.552 680.704 147.064 678.656 148.088C677.504 145.784 675.968 143.864 674.688 141.688C673.408 139.64 672.384 137.464 670.976 135.544C670.336 134.648 669.824 133.496 669.184 132.6C668.416 131.448 667.52 129.656 667.264 128.76C668.16 128.376 669.184 127.992 669.952 127.352C671.104 126.456 672.512 125.944 673.664 124.92C675.2 123.768 676.864 122.744 678.656 121.72C680.064 121.08 680.96 119.8 681.856 118.648C683.52 116.856 684.8 114.68 685.056 112.12C685.312 110.584 685.44 108.92 684.8 107.384C684.16 105.976 682.88 105.208 681.728 104.44C677.12 101.624 673.28 97.784 668.288 95.736C666.88 95.224 665.728 94.584 664.32 94.072C665.216 92.152 665.984 90.232 666.752 88.312C667.52 86.52 668.544 84.728 669.312 82.808C669.952 81.144 670.464 79.352 671.36 77.688C673.28 74.104 674.432 70.008 676.48 66.424C674.432 65.656 672.384 64.76 670.336 63.864C668.8 63.224 667.136 62.84 665.6 62.072C663.296 60.92 660.864 60.152 658.56 59.128C659.456 57.336 659.968 55.544 660.736 53.88C661.632 52.088 662.272 50.296 663.04 48.504C664.448 45.048 665.984 41.72 667.392 38.264C669.696 39.416 672.128 39.928 674.304 41.208C676.224 42.232 678.4 42.488 680.192 43.64C681.216 44.28 682.496 44.408 683.52 44.92C685.312 45.56 686.976 46.456 688.768 46.968C691.328 47.736 693.632 49.144 696.064 50.04C697.472 50.68 698.88 50.936 700.288 51.576C702.08 52.6 704.128 53.368 706.048 54.136C705.024 56.056 703.616 59.384 702.464 62.072C701.696 63.992 700.8 65.912 700.032 67.96C699.648 69.112 699.008 70.008 698.624 71.16C697.984 72.696 697.6 74.488 696.832 75.896C695.936 77.56 695.296 79.352 694.4 81.016C693.76 82.296 693.632 83.704 692.864 84.856C693.76 85.752 694.784 86.392 695.808 87.16C697.728 88.696 699.52 90.104 701.184 91.768C702.72 93.304 703.744 95.096 704.896 96.888ZM746.112 107.512C746.496 108.664 747.008 109.944 746.88 111.224C746.88 112.12 747.136 113.016 747.136 113.912C746.88 116.856 746.112 119.8 744.576 122.488C743.936 123.896 742.528 124.92 741.376 126.072C740.096 127.224 738.816 128.376 737.152 128.632C734.848 129.016 732.416 129.4 729.984 129.4C728.96 129.4 727.936 129.528 726.912 129.016C725.12 128.248 723.2 127.224 721.408 126.2C720.512 125.688 719.36 125.048 718.72 124.024C718.208 123 717.312 122.232 716.928 121.208C716.16 119.544 715.776 117.752 715.264 116.088C715.136 114.552 715.392 113.016 715.392 111.352C715.264 110.2 715.904 109.176 716.288 108.152C717.056 105.72 718.464 103.544 720.64 102.008C721.536 101.24 722.944 100.856 723.84 100.088C726.016 98.168 729.088 97.784 731.904 97.784C733.952 97.912 736 98.296 737.792 99.192C738.176 99.32 741.504 101.624 742.528 103.032C743.68 104.44 745.344 105.72 746.112 107.512ZM737.152 57.464C736.512 56.568 735.36 56.312 734.464 55.928C733.696 55.416 732.672 55.288 731.776 55.544C731.008 55.672 730.24 55.8 729.6 56.184C728.832 56.568 728.064 56.696 727.424 57.208C726.272 58.232 725.76 59.64 725.12 60.92C724.864 62.072 724.864 63.224 725.12 64.248C725.504 65.656 726.144 67.192 727.424 67.96C728.832 68.856 730.368 70.008 732.288 69.88C734.08 69.496 736 68.984 737.408 67.832C738.688 66.424 739.072 64.504 739.328 62.584C739.328 60.664 738.56 58.872 737.152 57.464ZM735.36 44.28C736.384 44.536 737.408 44.536 738.432 45.048C740.352 45.944 742.272 46.584 744.064 47.864C746.112 49.016 747.392 51.192 748.672 53.112C749.696 54.904 749.824 57.08 750.72 59C750.976 59.896 750.976 60.792 750.976 61.688C750.976 62.712 751.104 63.736 750.976 64.76C750.976 65.656 750.336 66.424 750.208 67.192C749.824 68.984 749.824 71.032 748.416 72.312C747.52 73.464 746.88 75 745.728 75.896C744.832 76.536 744.064 77.304 743.168 77.816C742.144 78.456 741.376 79.48 740.224 79.736C739.072 80.248 737.664 80.504 736.512 81.016C735.744 81.272 734.976 81.656 734.08 81.656C732.544 81.656 730.88 81.784 729.344 81.528C726.912 81.4 724.48 80.632 722.56 79.224C721.152 78.072 719.744 76.92 718.08 75.896C716.288 74.488 714.88 72.44 714.368 70.136C713.984 68.728 713.344 67.448 713.216 66.04C713.088 64.76 712.704 63.608 712.832 62.456C713.216 60.92 713.344 59.384 713.856 57.848C714.24 55.8 715.776 54.264 716.416 52.216C717.44 50.04 719.488 48.248 721.536 47.096C723.072 46.712 724.352 45.56 725.888 45.048C727.808 44.152 730.112 44.28 732.16 43.768C733.312 43.512 734.336 43.896 735.36 44.28Z" fill="#F0F0F0"/>
</svg>
